<mxfile host="app.diagrams.net" modified="2024-07-10T11:01:27.726Z" agent="Mozilla/5.0 (X11; Ubuntu; Linux x86_64; rv:127.0) Gecko/20100101 Firefox/127.0" etag="XaCrlFvf2eP8YFW0TcaC" version="24.6.0" type="device">
  <diagram name="Page-1" id="ooL4G8PIWozAlzZJ3SFA">
    <mxGraphModel dx="1674" dy="793" grid="1" gridSize="10" guides="1" tooltips="1" connect="1" arrows="1" fold="1" page="1" pageScale="1" pageWidth="850" pageHeight="1100" math="0" shadow="0">
      <root>
        <mxCell id="0" />
        <mxCell id="1" parent="0" />
        <mxCell id="Y1JsUBpAfT_lPRWnW4V6-1" value="" style="rounded=0;whiteSpace=wrap;html=1;fillColor=#FFC02B;" vertex="1" parent="1">
          <mxGeometry x="230" y="90" width="160" height="280" as="geometry" />
        </mxCell>
        <mxCell id="Y1JsUBpAfT_lPRWnW4V6-5" value="" style="rounded=0;whiteSpace=wrap;html=1;fillColor=#030303;" vertex="1" parent="1">
          <mxGeometry x="360" y="250" width="50" height="120" as="geometry" />
        </mxCell>
        <mxCell id="Y1JsUBpAfT_lPRWnW4V6-7" value="" style="rounded=0;whiteSpace=wrap;html=1;fillColor=#030303;" vertex="1" parent="1">
          <mxGeometry x="210" y="250" width="50" height="120" as="geometry" />
        </mxCell>
        <mxCell id="Y1JsUBpAfT_lPRWnW4V6-8" value="" style="rounded=0;whiteSpace=wrap;html=1;fillColor=#030303;" vertex="1" parent="1">
          <mxGeometry x="210" y="90" width="50" height="120" as="geometry" />
        </mxCell>
        <mxCell id="Y1JsUBpAfT_lPRWnW4V6-9" value="" style="rounded=0;whiteSpace=wrap;html=1;fillColor=#030303;" vertex="1" parent="1">
          <mxGeometry x="360" y="90" width="50" height="120" as="geometry" />
        </mxCell>
        <mxCell id="Y1JsUBpAfT_lPRWnW4V6-10" value="" style="endArrow=classic;html=1;rounded=0;strokeWidth=12;fillColor=#dae8fc;strokeColor=#6c8ebf;" edge="1" parent="1">
          <mxGeometry width="50" height="50" relative="1" as="geometry">
            <mxPoint x="310" y="230" as="sourcePoint" />
            <mxPoint x="310" y="30" as="targetPoint" />
          </mxGeometry>
        </mxCell>
        <mxCell id="Y1JsUBpAfT_lPRWnW4V6-12" value="X" style="edgeLabel;html=1;align=center;verticalAlign=middle;resizable=0;points=[];fontSize=48;fontColor=#66B2FF;" vertex="1" connectable="0" parent="Y1JsUBpAfT_lPRWnW4V6-10">
          <mxGeometry x="0.77" y="2" relative="1" as="geometry">
            <mxPoint x="42" y="-3" as="offset" />
          </mxGeometry>
        </mxCell>
        <mxCell id="Y1JsUBpAfT_lPRWnW4V6-11" value="" style="endArrow=classic;html=1;rounded=0;strokeWidth=12;fillColor=#f8cecc;strokeColor=#b85450;" edge="1" parent="1">
          <mxGeometry width="50" height="50" relative="1" as="geometry">
            <mxPoint x="310" y="230" as="sourcePoint" />
            <mxPoint x="140" y="230" as="targetPoint" />
          </mxGeometry>
        </mxCell>
        <mxCell id="Y1JsUBpAfT_lPRWnW4V6-13" value="Y" style="edgeLabel;html=1;align=center;verticalAlign=middle;resizable=0;points=[];fontSize=48;fontColor=#FF6666;" vertex="1" connectable="0" parent="Y1JsUBpAfT_lPRWnW4V6-11">
          <mxGeometry x="0.6353" y="-1" relative="1" as="geometry">
            <mxPoint x="9" y="-49" as="offset" />
          </mxGeometry>
        </mxCell>
      </root>
    </mxGraphModel>
  </diagram>
</mxfile>
